<?xml version="1.0" encoding="utf-8"?>
<!-- Generator: Adobe Illustrator 25.0.1, SVG Export Plug-In . SVG Version: 6.00 Build 0)  -->
<svg version="1.1" id="Layer_1" xmlns="http://www.w3.org/2000/svg" xmlns:xlink="http://www.w3.org/1999/xlink" x="0px" y="0px"
	 viewBox="0 0 239 132" style="enable-background:new 0 0 239 132;" xml:space="preserve">
<path d="M167.98,131.71c-21.57,0.64-43.13,0.25-64.66-1.46c-27.88-2.22-56.67,1.98-84.21-3.78c-7.52-1.57-12.6-6.84-13.36-14.92
	c-0.65-6.96-0.17-14.03-0.77-20.99C3.71,75.88,0.84,61.38,0.22,46.64C-0.24,35.7-0.89,16.78,8.57,9.02
	c8.32-6.83,21.81-3.49,31.51-3.14c21.36,0.77,42.72,1.61,64.06,2.77c20.52,1.12,40.6-2.35,60.77-5.13C179.66,1.5,193.92,0,208.81,0
	c12.75,0,27.68,10.39,29.74,23.55c1.89,12.09-2.75,25.41-2.98,37.63c-0.3,16.56,5.95,34.96,1.81,51.12
	c-2.39,9.35-8.97,13.86-17.9,16.32C202.78,133.23,185.05,131.21,167.98,131.71z"/>
</svg>
